#define br_width 84
#define br_height 48
static unsigned char br_bits[] = {
   0x00, 0x00, 0x00, 0x00, 0x00, 0x00, 0x00, 0x00, 0x00, 0x00, 0x00, 0x00,
   0x00, 0x00, 0x00, 0x00, 0x00, 0x00, 0x00, 0x00, 0x00, 0x00, 0x00, 0x00,
   0x00, 0x00, 0x10, 0x00, 0x00, 0x00, 0x00, 0x00, 0x00, 0x00, 0x00, 0x00,
   0x00, 0x18, 0x00, 0x00, 0x00, 0x00, 0x00, 0x00, 0x00, 0xf8, 0x01, 0x03,
   0x0c, 0x00, 0x00, 0x00, 0x00, 0x00, 0x00, 0x00, 0xfc, 0x03, 0x03, 0x06,
   0x00, 0x00, 0x00, 0x00, 0x00, 0x00, 0x00, 0x06, 0x06, 0x03, 0x02, 0x00,
   0x00, 0x00, 0x00, 0x00, 0x00, 0x00, 0x03, 0x0c, 0x03, 0x00, 0x00, 0x00,
   0x00, 0x00, 0x00, 0x00, 0x00, 0x03, 0x0c, 0x83, 0x0f, 0x00, 0x00, 0x00,
   0x00, 0x00, 0x00, 0x80, 0x01, 0x18, 0xc3, 0x3f, 0x00, 0x00, 0x00, 0x00,
   0x00, 0x00, 0x80, 0x01, 0x18, 0x03, 0x30, 0x00, 0x00, 0x00, 0x00, 0x00,
   0x00, 0x80, 0x01, 0x18, 0x03, 0x60, 0x00, 0x00, 0x00, 0x00, 0x00, 0x00,
   0x80, 0x01, 0x18, 0x03, 0x78, 0x00, 0x00, 0x00, 0x00, 0x00, 0x00, 0x80,
   0x01, 0x18, 0xc3, 0x7f, 0x00, 0x00, 0x00, 0x00, 0x00, 0x00, 0x80, 0x01,
   0x18, 0xe3, 0x60, 0x00, 0x00, 0x00, 0x00, 0x00, 0x00, 0x00, 0x03, 0x0c,
   0x63, 0x60, 0x00, 0x00, 0x00, 0x00, 0x00, 0x00, 0x00, 0x03, 0x0c, 0x63,
   0x60, 0x00, 0x00, 0x00, 0x00, 0x00, 0x00, 0x00, 0x06, 0x06, 0x63, 0x70,
   0x00, 0x00, 0x00, 0x00, 0x00, 0x00, 0x00, 0xfc, 0x03, 0xc3, 0x7f, 0x00,
   0x00, 0x00, 0x00, 0x00, 0x00, 0x00, 0xf8, 0x01, 0x83, 0x67, 0x00, 0x00,
   0x00, 0x00, 0x00, 0x00, 0x00, 0x00, 0x00, 0x00, 0x00, 0x00, 0x00, 0x00,
   0x00, 0x00, 0x00, 0x00, 0x00, 0x00, 0x00, 0x00, 0x00, 0x00, 0x00, 0x00,
   0x00, 0x00, 0x00, 0x00, 0x00, 0x00, 0x00, 0x00, 0x00, 0x00, 0x00, 0x00,
   0x00, 0x00, 0x00, 0x00, 0x00, 0x00, 0x00, 0x00, 0x00, 0x00, 0x00, 0x00,
   0x00, 0x00, 0x00, 0x00, 0x00, 0x00, 0x00, 0x00, 0x00, 0x00, 0x00, 0x00,
   0x00, 0x00, 0x00, 0x00, 0x00, 0x00, 0x00, 0x00, 0x00, 0x00, 0x00, 0x00,
   0x00, 0x00, 0x00, 0x00, 0x00, 0x00, 0x00, 0x00, 0x00, 0x00, 0x00, 0x00,
   0x00, 0x00, 0x00, 0x00, 0x00, 0x00, 0x00, 0x00, 0x00, 0x00, 0x00, 0x00,
   0x00, 0x00, 0x00, 0x00, 0x00, 0x00, 0x00, 0x00, 0x07, 0x38, 0x00, 0x00,
   0x00, 0x00, 0x60, 0x00, 0x00, 0x00, 0x00, 0x0f, 0x3c, 0x00, 0x00, 0x00,
   0x00, 0x60, 0x00, 0x00, 0x00, 0x00, 0x0f, 0x3c, 0x00, 0x00, 0x00, 0x00,
   0x60, 0x00, 0x00, 0x00, 0x00, 0x0b, 0x34, 0x00, 0x00, 0x00, 0x00, 0x60,
   0x00, 0x00, 0x00, 0x00, 0x1b, 0x36, 0x0c, 0x0c, 0xf3, 0x00, 0x6f, 0xe0,
   0x03, 0x00, 0x00, 0x1b, 0x36, 0x0c, 0x0c, 0xff, 0xc1, 0x7f, 0xf0, 0x07,
   0x00, 0x00, 0x13, 0x32, 0x0c, 0x0c, 0x87, 0xc3, 0x70, 0x18, 0x0c, 0x00,
   0x00, 0x33, 0x33, 0x0c, 0x0c, 0x03, 0x63, 0x60, 0x1c, 0x1c, 0x00, 0x00,
   0x33, 0x33, 0x0c, 0x0c, 0x03, 0x63, 0x60, 0x0c, 0x18, 0x00, 0x00, 0xa3,
   0x31, 0x0c, 0x0c, 0x03, 0x63, 0x60, 0x0c, 0x18, 0x00, 0x00, 0xe3, 0x31,
   0x0c, 0x0c, 0x03, 0x63, 0x60, 0x0c, 0x18, 0x00, 0x00, 0xe3, 0x31, 0x0c,
   0x0c, 0x03, 0x63, 0x60, 0x0c, 0x18, 0x00, 0x00, 0xc3, 0x30, 0x0c, 0x0c,
   0x03, 0x63, 0x60, 0x1c, 0x1c, 0x00, 0x00, 0x03, 0x30, 0x1c, 0x0e, 0x03,
   0xc3, 0x70, 0x18, 0x0c, 0x00, 0x00, 0x03, 0x30, 0xf8, 0x0f, 0x03, 0xc3,
   0x7f, 0xf0, 0x07, 0x00, 0x00, 0x03, 0x30, 0xf0, 0x0c, 0x03, 0x03, 0x6f,
   0xe0, 0x03, 0x00, 0x00, 0x00, 0x00, 0x00, 0x00, 0x00, 0x00, 0x00, 0x00,
   0x00, 0x00, 0x00, 0x00, 0x00, 0x00, 0x00, 0x00, 0x00, 0x00, 0x00, 0x00,
   0x00, 0x00, 0x00, 0x00, 0x00, 0x00, 0x00, 0x00, 0x00, 0x00, 0x00, 0x00 };
