#define cn_width 84
#define cn_height 48
static unsigned char cn_bits[] = {
   0x00, 0x00, 0x00, 0x00, 0x00, 0x00, 0x00, 0x00, 0x00, 0x00, 0x00, 0x00,
   0x00, 0x00, 0x00, 0x00, 0x00, 0x00, 0x00, 0x00, 0x00, 0x00, 0x00, 0x00,
   0x00, 0x02, 0x00, 0x00, 0x00, 0x00, 0x00, 0x00, 0x00, 0x00, 0x00, 0x18,
   0x02, 0xc0, 0x00, 0x00, 0x00, 0x00, 0x00, 0x00, 0x00, 0x00, 0x18, 0x03,
   0xc0, 0xf0, 0x0f, 0x00, 0x00, 0x00, 0x00, 0x00, 0x00, 0x08, 0x01, 0x40,
   0x00, 0x0c, 0x00, 0x00, 0x00, 0x00, 0x00, 0x00, 0x8c, 0xff, 0x41, 0x00,
   0x06, 0x00, 0x00, 0x00, 0x00, 0x00, 0x00, 0x86, 0x80, 0xf9, 0x07, 0x03,
   0x00, 0x00, 0x00, 0x00, 0x00, 0x00, 0xc6, 0xc8, 0x60, 0x02, 0x01, 0x00,
   0x00, 0x00, 0x00, 0x00, 0x00, 0x67, 0x08, 0x60, 0x02, 0x01, 0x00, 0x00,
   0x00, 0x00, 0x00, 0xc0, 0x25, 0x08, 0x20, 0x03, 0x01, 0x00, 0x00, 0x00,
   0x00, 0x00, 0x80, 0x04, 0x08, 0x20, 0xfb, 0x3f, 0x00, 0x00, 0x00, 0x00,
   0x00, 0x00, 0x84, 0x69, 0x30, 0x01, 0x01, 0x00, 0x00, 0x00, 0x00, 0x00,
   0x00, 0x84, 0xc8, 0xb0, 0x01, 0x01, 0x00, 0x00, 0x00, 0x00, 0x00, 0x00,
   0xc4, 0xc8, 0xe0, 0x01, 0x01, 0x00, 0x00, 0x00, 0x00, 0x00, 0x00, 0x44,
   0x88, 0xc1, 0x01, 0x01, 0x00, 0x00, 0x00, 0x00, 0x00, 0x00, 0x64, 0x08,
   0xc1, 0x03, 0x01, 0x80, 0x01, 0x00, 0x00, 0x00, 0x00, 0x24, 0x08, 0x60,
   0x06, 0x01, 0x80, 0x01, 0x00, 0x00, 0x00, 0x00, 0x04, 0x0c, 0x30, 0x80,
   0x01, 0x00, 0x01, 0x00, 0x00, 0x00, 0x00, 0x04, 0x0f, 0x38, 0xe0, 0x01,
   0x80, 0x00, 0x00, 0x00, 0x00, 0x00, 0x04, 0x02, 0x08, 0x40, 0x00, 0x00,
   0x00, 0x00, 0x00, 0x00, 0x00, 0x00, 0x00, 0x00, 0x00, 0x00, 0x00, 0x00,
   0x00, 0x00, 0x00, 0x00, 0x00, 0x00, 0x00, 0x00, 0x00, 0x00, 0x00, 0x00,
   0x00, 0x00, 0x00, 0x00, 0x00, 0x00, 0x00, 0x00, 0x00, 0x00, 0x00, 0x00,
   0x00, 0x00, 0x00, 0x00, 0x00, 0x00, 0x00, 0x00, 0x00, 0x00, 0x00, 0x00,
   0x00, 0x00, 0x00, 0x00, 0x00, 0x00, 0x00, 0x00, 0x00, 0x00, 0x00, 0x00,
   0x00, 0x00, 0x00, 0x00, 0x00, 0x00, 0x00, 0x00, 0x00, 0x00, 0x00, 0xc0,
   0x18, 0xc0, 0xff, 0x03, 0x00, 0x00, 0x00, 0x00, 0x00, 0x00, 0x42, 0x08,
   0x40, 0x08, 0x02, 0x00, 0x00, 0x00, 0x00, 0x00, 0x00, 0x42, 0x08, 0x40,
   0x08, 0x02, 0x00, 0x00, 0x00, 0x00, 0x00, 0x00, 0x42, 0x08, 0x40, 0x08,
   0x02, 0x00, 0x00, 0x00, 0x00, 0x00, 0x00, 0xc6, 0x18, 0xc0, 0xff, 0x03,
   0x00, 0x00, 0x00, 0x00, 0x00, 0xc0, 0xff, 0xff, 0x41, 0x08, 0x02, 0x00,
   0x00, 0x00, 0x00, 0x00, 0x00, 0x42, 0x08, 0x40, 0x08, 0x02, 0x00, 0x00,
   0x00, 0x00, 0x00, 0x00, 0x42, 0x08, 0xc0, 0xff, 0x03, 0x00, 0x00, 0x00,
   0x00, 0x00, 0x00, 0x42, 0x08, 0x40, 0x1c, 0x02, 0x00, 0x00, 0x00, 0x00,
   0x00, 0x00, 0x42, 0x08, 0x00, 0x36, 0x00, 0x00, 0x00, 0x00, 0x00, 0x00,
   0x00, 0x42, 0x08, 0x00, 0x63, 0x00, 0x00, 0x00, 0x00, 0x00, 0x00, 0x00,
   0xc2, 0x08, 0xe0, 0xe3, 0x07, 0x00, 0x00, 0x00, 0x00, 0x00, 0x00, 0xc2,
   0x0f, 0x78, 0x22, 0x0e, 0x00, 0x00, 0x00, 0x00, 0x00, 0x00, 0xc2, 0x18,
   0x00, 0x22, 0x00, 0x00, 0x00, 0x00, 0x00, 0x00, 0x00, 0x02, 0x00, 0x00,
   0x22, 0x00, 0x00, 0x00, 0x00, 0x00, 0x00, 0x00, 0x02, 0x00, 0x00, 0x23,
   0x00, 0x00, 0x00, 0x00, 0x00, 0x00, 0x00, 0xfe, 0xff, 0x80, 0x21, 0x00,
   0x00, 0x00, 0x00, 0x00, 0x00, 0x00, 0x00, 0x00, 0xe0, 0x20, 0x00, 0x00,
   0x00, 0x00, 0x00, 0x00, 0x00, 0x00, 0x00, 0x00, 0x00, 0x00, 0x00, 0x00,
   0x00, 0x00, 0x00, 0x00, 0x00, 0x00, 0x00, 0x00, 0x00, 0x00, 0x00, 0x00,
   0x00, 0x00, 0x00, 0x00, 0x00, 0x00, 0x00, 0x00, 0x00, 0x00, 0x00, 0x00 };
