#define de_width 84
#define de_height 48
static unsigned char de_bits[] = {
   0x00, 0x00, 0x00, 0x00, 0x00, 0x00, 0x00, 0x00, 0x00, 0x00, 0x00, 0x00,
   0x00, 0x00, 0x00, 0x00, 0x00, 0x00, 0x00, 0x00, 0x00, 0x00, 0x00, 0x00,
   0x00, 0x00, 0x00, 0x00, 0x00, 0x00, 0x00, 0x00, 0x00, 0x00, 0x00, 0x00,
   0x00, 0x00, 0x00, 0x00, 0x00, 0x00, 0x00, 0x00, 0x00, 0x00, 0x00, 0x00,
   0x00, 0x18, 0x06, 0x00, 0x00, 0x00, 0x00, 0x00, 0x00, 0x03, 0x06, 0x00,
   0x18, 0x06, 0x00, 0x00, 0x00, 0x00, 0x00, 0x00, 0x03, 0x06, 0x00, 0x18,
   0x06, 0x00, 0x00, 0x00, 0x00, 0x00, 0x00, 0x03, 0x06, 0x00, 0x18, 0x06,
   0x00, 0x00, 0x00, 0x00, 0x00, 0x00, 0x03, 0x06, 0x1f, 0x18, 0x06, 0x1e,
   0x00, 0x00, 0x00, 0x00, 0x00, 0x03, 0x86, 0x3f, 0x18, 0x86, 0x7f, 0x00,
   0x00, 0x00, 0x00, 0x00, 0xff, 0x07, 0x60, 0x18, 0x86, 0x61, 0x00, 0x00,
   0x00, 0x00, 0x00, 0xff, 0x07, 0x60, 0x18, 0xc6, 0xc0, 0x00, 0x00, 0x00,
   0x00, 0x00, 0x03, 0x06, 0x7f, 0x18, 0xc6, 0xc0, 0x00, 0x00, 0x00, 0x00,
   0x00, 0x03, 0x86, 0x7f, 0x18, 0xc6, 0xc0, 0x00, 0x00, 0x00, 0x00, 0x00,
   0x03, 0xc6, 0x60, 0x18, 0xc6, 0xc0, 0x00, 0x00, 0x00, 0x00, 0x00, 0x03,
   0xc6, 0x60, 0x18, 0xc6, 0xc0, 0x00, 0x00, 0x00, 0x00, 0x00, 0x03, 0xc6,
   0x70, 0x18, 0x86, 0x61, 0x00, 0x00, 0x00, 0x00, 0x00, 0x03, 0x86, 0x7f,
   0x18, 0x86, 0x7f, 0x00, 0x00, 0x00, 0x00, 0x00, 0x03, 0x06, 0x6f, 0x18,
   0x06, 0x1e, 0x00, 0x00, 0x00, 0x00, 0x00, 0x00, 0x00, 0x00, 0x00, 0x00,
   0x00, 0x00, 0x00, 0x00, 0x00, 0x00, 0x00, 0x00, 0x00, 0x00, 0x00, 0x00,
   0x00, 0x00, 0x00, 0x00, 0x00, 0x00, 0x00, 0x00, 0x00, 0x00, 0x00, 0x00,
   0x00, 0x00, 0x00, 0x00, 0x00, 0x00, 0x00, 0x00, 0x00, 0x00, 0x00, 0x00,
   0x00, 0x00, 0x00, 0x00, 0x00, 0x00, 0x00, 0x00, 0x00, 0x00, 0x00, 0x00,
   0x00, 0x00, 0x00, 0x00, 0x00, 0x00, 0x00, 0x00, 0x00, 0x00, 0x00, 0x00,
   0x00, 0x00, 0x00, 0x00, 0x00, 0x00, 0x00, 0x00, 0x00, 0x00, 0x00, 0x00,
   0x00, 0x00, 0x00, 0x00, 0x00, 0x00, 0x00, 0x00, 0x00, 0x00, 0x00, 0x00,
   0x00, 0x00, 0x00, 0x00, 0x00, 0x00, 0x00, 0x00, 0x00, 0x00, 0x00, 0x00,
   0x00, 0x80, 0x01, 0x00, 0x00, 0x00, 0x00, 0x00, 0x80, 0x81, 0x81, 0x01,
   0x80, 0x61, 0x00, 0x00, 0x00, 0x00, 0x00, 0x80, 0xc1, 0x81, 0x01, 0x80,
   0x61, 0x00, 0x00, 0x00, 0x00, 0x00, 0x80, 0xc1, 0xc3, 0x00, 0x80, 0x61,
   0x00, 0x00, 0x00, 0x00, 0x00, 0x00, 0x43, 0xc3, 0xe0, 0x83, 0xf1, 0x07,
   0x00, 0x00, 0x00, 0x00, 0x00, 0x43, 0xc2, 0xf8, 0x87, 0xf1, 0x07, 0x00,
   0x00, 0x00, 0x00, 0x00, 0x63, 0xc2, 0x18, 0x86, 0x61, 0x00, 0x00, 0x00,
   0x00, 0x00, 0x00, 0x63, 0x66, 0x0c, 0x8c, 0x61, 0x00, 0x00, 0x00, 0x00,
   0x00, 0x00, 0x26, 0x66, 0xfc, 0x8f, 0x61, 0x00, 0x00, 0x00, 0x00, 0x00,
   0x00, 0x26, 0x64, 0xfc, 0x8f, 0x61, 0x00, 0x00, 0x00, 0x00, 0x00, 0x00,
   0x36, 0x64, 0x0c, 0x80, 0x61, 0x00, 0x00, 0x00, 0x00, 0x00, 0x00, 0x36,
   0x3c, 0x0c, 0x80, 0x61, 0x00, 0x00, 0x00, 0x00, 0x00, 0x00, 0x1c, 0x3c,
   0x18, 0x80, 0x61, 0x00, 0x00, 0x00, 0x00, 0x00, 0x00, 0x1c, 0x38, 0xf0,
   0x8f, 0xe1, 0x01, 0x00, 0x00, 0x00, 0x00, 0x00, 0x1c, 0x38, 0xe0, 0x87,
   0xc1, 0x07, 0x00, 0x00, 0x00, 0x00, 0x00, 0x00, 0x00, 0x00, 0x00, 0x00,
   0x00, 0x00, 0x00, 0x00, 0x00, 0x00, 0x00, 0x00, 0x00, 0x00, 0x00, 0x00,
   0x00, 0x00, 0x00, 0x00, 0x00, 0x00, 0x00, 0x00, 0x00, 0x00, 0x00, 0x00,
   0x00, 0x00, 0x00, 0x00, 0x00, 0x00, 0x00, 0x00, 0x00, 0x00, 0x00, 0x00,
   0x00, 0x00, 0x00, 0x00, 0x00, 0x00, 0x00, 0x00, 0x00, 0x00, 0x00, 0x00 };
