#define fr_width 84
#define fr_height 48
static unsigned char fr_bits[] = {
   0x00, 0x00, 0x00, 0x00, 0x00, 0x00, 0x00, 0x00, 0x00, 0x00, 0x00, 0x00,
   0x00, 0x00, 0x00, 0x00, 0x00, 0x00, 0x00, 0x00, 0x00, 0x00, 0x00, 0x00,
   0x00, 0x00, 0x00, 0x00, 0x00, 0x00, 0x00, 0x00, 0x00, 0x00, 0x00, 0x00,
   0x00, 0x00, 0x00, 0x00, 0x00, 0x00, 0x00, 0x00, 0x00, 0x00, 0x00, 0x00,
   0x00, 0x00, 0x00, 0x00, 0x00, 0x00, 0x00, 0x00, 0x00, 0x00, 0x00, 0x60,
   0x00, 0x00, 0x00, 0x00, 0x00, 0x00, 0xf8, 0x03, 0x00, 0x00, 0x60, 0x00,
   0x00, 0x00, 0x00, 0x00, 0x00, 0x18, 0x07, 0x00, 0x00, 0x00, 0x00, 0x00,
   0x00, 0x00, 0x00, 0x00, 0x18, 0x06, 0x00, 0x00, 0x00, 0x00, 0x00, 0x00,
   0x00, 0x00, 0x00, 0x18, 0x06, 0x0f, 0xec, 0x60, 0x78, 0x30, 0x0c, 0x3b,
   0x00, 0x00, 0x18, 0x86, 0x3b, 0x9c, 0x61, 0xdc, 0x31, 0x0c, 0x07, 0x00,
   0x00, 0xf8, 0xc3, 0x30, 0x0c, 0x63, 0x86, 0x31, 0x0c, 0x03, 0x00, 0x00,
   0x18, 0xc6, 0x20, 0x0c, 0x63, 0x06, 0x31, 0x0c, 0x03, 0x00, 0x00, 0x18,
   0xc4, 0x60, 0x0c, 0x63, 0x06, 0x33, 0x0c, 0x03, 0x00, 0x00, 0x18, 0xcc,
   0x60, 0x0c, 0x63, 0x06, 0x33, 0x0c, 0x03, 0x00, 0x00, 0x18, 0xcc, 0x20,
   0x0c, 0x63, 0x06, 0x31, 0x0c, 0x03, 0x00, 0x00, 0x18, 0xc4, 0x30, 0x0c,
   0x63, 0x86, 0x31, 0x0c, 0x03, 0x00, 0x00, 0x18, 0x87, 0x3b, 0x0c, 0x63,
   0xdc, 0x61, 0x0e, 0x03, 0x00, 0x00, 0xf8, 0x03, 0x0f, 0x0c, 0x63, 0x78,
   0xc0, 0x0d, 0x03, 0x00, 0x00, 0x00, 0x00, 0x00, 0x00, 0x60, 0x00, 0x00,
   0x00, 0x00, 0x00, 0x00, 0x00, 0x00, 0x00, 0x00, 0x60, 0x00, 0x00, 0x00,
   0x00, 0x00, 0x00, 0x00, 0x00, 0x00, 0x00, 0x30, 0x00, 0x00, 0x00, 0x00,
   0x00, 0x00, 0x00, 0x00, 0x00, 0x00, 0x18, 0x00, 0x00, 0x00, 0x00, 0x00,
   0x00, 0x00, 0x00, 0x00, 0x00, 0x00, 0x00, 0x00, 0x00, 0x00, 0x00, 0x00,
   0x00, 0x00, 0x00, 0x00, 0x00, 0x00, 0x00, 0x00, 0x00, 0x00, 0x00, 0x00,
   0x00, 0x00, 0x00, 0x00, 0x00, 0x00, 0x00, 0x00, 0x00, 0x00, 0x18, 0x00,
   0x00, 0x00, 0x00, 0x00, 0x00, 0x00, 0x60, 0x00, 0x00, 0x18, 0x00, 0x00,
   0x00, 0x00, 0x00, 0x00, 0x00, 0x60, 0x00, 0x00, 0x18, 0x00, 0x00, 0x00,
   0x00, 0x00, 0x00, 0x00, 0x60, 0x00, 0x00, 0x18, 0x00, 0x00, 0x00, 0x00,
   0x00, 0x00, 0x00, 0x60, 0x00, 0x00, 0x18, 0x3e, 0x00, 0x3b, 0x0e, 0x3c,
   0xb0, 0x03, 0x6f, 0xf8, 0x00, 0x18, 0x77, 0x00, 0x67, 0x19, 0xee, 0x70,
   0x86, 0x7b, 0xdc, 0x01, 0x18, 0x41, 0x00, 0xc3, 0x10, 0xc3, 0x30, 0xcc,
   0x70, 0x04, 0x01, 0x98, 0xc1, 0x00, 0xc3, 0x30, 0x83, 0x30, 0xcc, 0x60,
   0x06, 0x03, 0x98, 0xff, 0x00, 0xc3, 0x30, 0x83, 0x31, 0xcc, 0x60, 0xfe,
   0x03, 0x98, 0x01, 0x00, 0xc3, 0x30, 0x83, 0x31, 0xcc, 0x60, 0x06, 0x00,
   0x98, 0x01, 0x00, 0xc3, 0x30, 0x83, 0x30, 0xcc, 0x60, 0x06, 0x00, 0x18,
   0x01, 0x00, 0xc3, 0x30, 0xc3, 0x30, 0xcc, 0x70, 0x04, 0x00, 0x18, 0x67,
   0x00, 0xc3, 0x30, 0xee, 0x30, 0x8c, 0x7b, 0x9c, 0x01, 0x18, 0x7e, 0x00,
   0xc3, 0x30, 0x3c, 0x30, 0x0c, 0x6f, 0xf8, 0x01, 0x00, 0x00, 0x00, 0x00,
   0x00, 0x00, 0x00, 0x00, 0x00, 0x00, 0x00, 0x00, 0x00, 0x00, 0x00, 0x00,
   0x00, 0x00, 0x00, 0x00, 0x00, 0x00, 0x00, 0x00, 0x00, 0x00, 0x00, 0x00,
   0x00, 0x00, 0x00, 0x00, 0x00, 0x00, 0x00, 0x00, 0x00, 0x00, 0x00, 0x00,
   0x00, 0x00, 0x00, 0x00, 0x00, 0x00, 0x00, 0x00, 0x00, 0x00, 0x00, 0x00,
   0x00, 0x00, 0x00, 0x00, 0x00, 0x00, 0x00, 0x00, 0x00, 0x00, 0x00, 0x00,
   0x00, 0x00, 0x00, 0x00, 0x00, 0x00, 0x00, 0x00, 0x00, 0x00, 0x00, 0x00,
   0x00, 0x00, 0x00, 0x00, 0x00, 0x00, 0x00, 0x00, 0x00, 0x00, 0x00, 0x00 };
