#define in_width 84
#define in_height 48
static unsigned char in_bits[] = {
   0x00, 0x00, 0x00, 0x00, 0x00, 0x00, 0x20, 0x00, 0x00, 0x00, 0x00, 0x00,
   0x00, 0x00, 0x00, 0x00, 0x00, 0x40, 0x00, 0x00, 0x00, 0x00, 0x00, 0x00,
   0x00, 0x00, 0x00, 0x00, 0x80, 0x00, 0x00, 0x00, 0x00, 0x00, 0x00, 0x00,
   0x00, 0x00, 0x00, 0x80, 0x01, 0x00, 0x00, 0x00, 0x00, 0x00, 0x00, 0x00,
   0x00, 0x00, 0x00, 0x01, 0x00, 0x00, 0x00, 0x00, 0x00, 0x00, 0xff, 0xff,
   0xff, 0xff, 0x0f, 0x00, 0x00, 0x00, 0x00, 0x00, 0x00, 0x80, 0x88, 0x40,
   0x00, 0x02, 0x00, 0x00, 0x00, 0x00, 0x00, 0x00, 0x80, 0x88, 0x40, 0x00,
   0x02, 0x00, 0x00, 0x00, 0x00, 0x00, 0x00, 0xfe, 0x88, 0x48, 0xf0, 0x03,
   0x00, 0x00, 0x00, 0x00, 0x00, 0x00, 0x86, 0xfe, 0xf8, 0x0f, 0x02, 0x00,
   0x00, 0x00, 0x00, 0x00, 0x00, 0x84, 0x8c, 0x10, 0x08, 0x02, 0x00, 0x00,
   0x00, 0x00, 0x00, 0x00, 0x80, 0x88, 0x20, 0x08, 0x02, 0x00, 0x00, 0x00,
   0x00, 0x00, 0x00, 0x80, 0x80, 0x60, 0x10, 0x02, 0x00, 0x00, 0x00, 0x00,
   0x00, 0x00, 0x80, 0x80, 0x40, 0x10, 0x02, 0x00, 0x00, 0x00, 0x00, 0x00,
   0x00, 0x80, 0x80, 0x00, 0x20, 0x02, 0x00, 0x00, 0x00, 0x00, 0x00, 0x00,
   0x00, 0x00, 0x00, 0x00, 0x00, 0x00, 0x00, 0x00, 0x00, 0x00, 0x00, 0x00,
   0x00, 0x00, 0x00, 0x00, 0x00, 0x00, 0x00, 0x00, 0x00, 0x00, 0x00, 0x00,
   0x00, 0x00, 0x00, 0x00, 0x00, 0x00, 0x00, 0x00, 0x00, 0x00, 0x00, 0x00,
   0x00, 0x00, 0x00, 0x00, 0x00, 0x00, 0x00, 0x00, 0x00, 0x00, 0x00, 0x00,
   0x00, 0x00, 0x00, 0x00, 0x00, 0x00, 0x00, 0x00, 0x00, 0x00, 0x00, 0x00,
   0x00, 0x00, 0x00, 0x00, 0x00, 0x00, 0x00, 0x00, 0x00, 0x00, 0x00, 0x00,
   0x00, 0x00, 0x00, 0x00, 0x00, 0x00, 0x00, 0x00, 0x00, 0x00, 0x00, 0x00,
   0x00, 0x00, 0x00, 0x00, 0x00, 0x00, 0x00, 0x00, 0x00, 0x00, 0x00, 0x00,
   0x00, 0x00, 0x00, 0x00, 0x00, 0x00, 0x00, 0x00, 0x00, 0x00, 0x00, 0x00,
   0x00, 0x00, 0x00, 0x38, 0x00, 0x00, 0x00, 0x00, 0x00, 0x00, 0x00, 0x00,
   0x00, 0x00, 0xc4, 0x00, 0x00, 0x00, 0x00, 0x00, 0x00, 0x00, 0x00, 0x00,
   0x00, 0x02, 0x01, 0x00, 0x00, 0x00, 0x00, 0x00, 0x00, 0x00, 0x00, 0x00,
   0x02, 0x02, 0x00, 0x00, 0x00, 0x00, 0x00, 0x00, 0x00, 0x00, 0x00, 0x02,
   0x02, 0x00, 0x00, 0x00, 0x00, 0x00, 0x00, 0x00, 0x00, 0xff, 0xff, 0xff,
   0xff, 0x07, 0x00, 0x00, 0x00, 0x00, 0x00, 0x00, 0x40, 0x04, 0x88, 0x11,
   0x01, 0x00, 0x00, 0x00, 0x00, 0x00, 0x00, 0x7c, 0x04, 0x08, 0x11, 0x01,
   0x00, 0x00, 0x00, 0x00, 0x00, 0x00, 0x02, 0xe4, 0x0f, 0x11, 0x01, 0x00,
   0x00, 0x00, 0x00, 0x00, 0x00, 0x02, 0x64, 0xc8, 0x10, 0x01, 0x00, 0x00,
   0x00, 0x00, 0x00, 0x00, 0x42, 0x44, 0x48, 0x10, 0x01, 0x00, 0x00, 0x00,
   0x00, 0x00, 0x00, 0x44, 0x04, 0xc8, 0x18, 0x01, 0x00, 0x00, 0x00, 0x00,
   0x00, 0x00, 0x78, 0x04, 0x88, 0x17, 0x01, 0x00, 0x00, 0x00, 0x00, 0x00,
   0x00, 0x40, 0x04, 0x08, 0x10, 0x01, 0x00, 0x00, 0x00, 0x00, 0x00, 0x00,
   0x80, 0x04, 0x08, 0x10, 0x01, 0x00, 0x00, 0x00, 0x00, 0x00, 0x00, 0xe0,
   0x00, 0x00, 0x00, 0x00, 0x00, 0x00, 0x00, 0x00, 0x00, 0x00, 0x20, 0x01,
   0x00, 0x00, 0x00, 0x00, 0x00, 0x00, 0x00, 0x00, 0x00, 0x02, 0x01, 0x00,
   0x00, 0x00, 0x00, 0x00, 0x00, 0x00, 0x00, 0x00, 0x8c, 0x01, 0x00, 0x00,
   0x00, 0x00, 0x00, 0x00, 0x00, 0x00, 0x00, 0xf8, 0x00, 0x00, 0x00, 0x00,
   0x00, 0x00, 0x00, 0x00, 0x00, 0x00, 0x00, 0x00, 0x00, 0x00, 0x00, 0x00,
   0x00, 0x00, 0x00, 0x00, 0x00, 0x00, 0x00, 0x00, 0x00, 0x00, 0x00, 0x00,
   0x00, 0x00, 0x00, 0x00, 0x00, 0x00, 0x00, 0x00, 0x00, 0x00, 0x00, 0x00 };
