#define it_width 84
#define it_height 48
static unsigned char it_bits[] = {
   0x00, 0x00, 0x00, 0x00, 0x00, 0x00, 0x00, 0x00, 0x00, 0x00, 0x00, 0x00,
   0x00, 0x00, 0x00, 0x00, 0x00, 0x00, 0x00, 0x00, 0x00, 0x00, 0x00, 0x00,
   0x00, 0x00, 0x00, 0x00, 0x00, 0x00, 0x00, 0x00, 0x00, 0x00, 0x00, 0x00,
   0x00, 0x00, 0x00, 0x00, 0x00, 0x00, 0x00, 0x00, 0x00, 0x00, 0x60, 0x00,
   0x00, 0x00, 0x00, 0x00, 0x00, 0x00, 0x00, 0x00, 0xf8, 0x60, 0x00, 0x00,
   0x00, 0x00, 0x00, 0x00, 0x00, 0x00, 0x00, 0xfe, 0x03, 0x00, 0x00, 0x00,
   0x00, 0x00, 0x00, 0x00, 0x00, 0x00, 0x07, 0x02, 0x00, 0x00, 0x00, 0x00,
   0x00, 0x00, 0x00, 0x00, 0x00, 0x03, 0x60, 0xf0, 0x01, 0x1e, 0x00, 0x00,
   0x00, 0x00, 0x00, 0x80, 0x01, 0x60, 0xf8, 0x83, 0x3f, 0x00, 0x00, 0x00,
   0x00, 0x00, 0x80, 0x01, 0x60, 0x00, 0x82, 0x61, 0x00, 0x00, 0x00, 0x00,
   0x00, 0x80, 0x01, 0x60, 0x00, 0xc6, 0xc0, 0x00, 0x00, 0x00, 0x00, 0x00,
   0x80, 0x01, 0x60, 0xf0, 0xc7, 0xc0, 0x00, 0x00, 0x00, 0x00, 0x00, 0x80,
   0x01, 0x60, 0xf8, 0xc7, 0xc0, 0x00, 0x00, 0x00, 0x00, 0x00, 0x80, 0x01,
   0x60, 0x0c, 0xc6, 0xc0, 0x00, 0x00, 0x00, 0x00, 0x00, 0x00, 0x03, 0x60,
   0x0c, 0xc6, 0xc0, 0x00, 0x00, 0x00, 0x00, 0x00, 0x00, 0x07, 0x62, 0x0c,
   0x87, 0x61, 0x00, 0x00, 0x00, 0x00, 0x00, 0x00, 0xfe, 0x63, 0xf8, 0x87,
   0x3f, 0x00, 0x00, 0x00, 0x00, 0x00, 0x00, 0xf8, 0x60, 0xf0, 0x06, 0x1e,
   0x00, 0x00, 0x00, 0x00, 0x00, 0x00, 0x00, 0x00, 0x00, 0x00, 0x00, 0x00,
   0x00, 0x00, 0x00, 0x00, 0x00, 0x00, 0x00, 0x00, 0x00, 0x00, 0x00, 0x00,
   0x00, 0x00, 0x00, 0x00, 0x00, 0x00, 0x00, 0x00, 0x00, 0x00, 0x00, 0x00,
   0x00, 0x00, 0x00, 0x00, 0x00, 0x00, 0x00, 0x00, 0x00, 0x00, 0x00, 0x00,
   0x00, 0x00, 0x00, 0x00, 0x00, 0x00, 0x00, 0x00, 0x00, 0x00, 0x00, 0x00,
   0x00, 0x00, 0x00, 0x00, 0x00, 0x00, 0x00, 0x00, 0x00, 0x00, 0x00, 0x00,
   0x00, 0x00, 0x00, 0x00, 0x00, 0x00, 0x00, 0x00, 0x00, 0x00, 0x00, 0x00,
   0x00, 0x00, 0x00, 0x00, 0x00, 0x00, 0x00, 0x00, 0x00, 0x00, 0x00, 0x00,
   0x00, 0x00, 0x00, 0x00, 0x06, 0x00, 0x00, 0x00, 0x00, 0x00, 0x00, 0x00,
   0x00, 0x00, 0x00, 0x06, 0x00, 0x00, 0x00, 0x00, 0x00, 0x00, 0x00, 0x00,
   0x00, 0x00, 0x06, 0x00, 0x00, 0x00, 0x00, 0x00, 0x00, 0x00, 0x00, 0x00,
   0x00, 0x06, 0x00, 0x00, 0x00, 0x00, 0x7b, 0x3c, 0xe0, 0x81, 0x3d, 0xf0,
   0x06, 0x1e, 0x00, 0x00, 0x00, 0xff, 0x7e, 0xf8, 0x83, 0x7f, 0xf8, 0x87,
   0x3f, 0x00, 0x00, 0x00, 0x87, 0xc3, 0x18, 0x86, 0xc3, 0x18, 0x87, 0x61,
   0x00, 0x00, 0x00, 0x83, 0xc1, 0x0c, 0x8c, 0xc1, 0x0c, 0xc6, 0xc0, 0x00,
   0x00, 0x00, 0x83, 0xc1, 0x0c, 0x8c, 0xc1, 0x0c, 0xc6, 0xc0, 0x00, 0x00,
   0x00, 0x83, 0xc1, 0x0c, 0x8c, 0xc1, 0x0c, 0xc6, 0xc0, 0x00, 0x00, 0x00,
   0x83, 0xc1, 0x0c, 0x8c, 0xc1, 0x0c, 0xc6, 0xc0, 0x00, 0x00, 0x00, 0x83,
   0xc1, 0x0c, 0x8c, 0xc1, 0x0c, 0xc6, 0xc0, 0x00, 0x00, 0x00, 0x83, 0xc1,
   0x18, 0x86, 0xc1, 0x18, 0x87, 0x61, 0x00, 0x00, 0x00, 0x83, 0xc1, 0xf8,
   0x83, 0xc1, 0xf8, 0x87, 0x3f, 0x00, 0x00, 0x00, 0x83, 0xc1, 0xe0, 0x81,
   0xc1, 0xf0, 0x06, 0x1e, 0x00, 0x00, 0x00, 0x00, 0x00, 0x00, 0x00, 0x00,
   0x00, 0x00, 0x00, 0x00, 0x00, 0x00, 0x00, 0x00, 0x00, 0x00, 0x00, 0x00,
   0x00, 0x00, 0x00, 0x00, 0x00, 0x00, 0x00, 0x00, 0x00, 0x00, 0x00, 0x00,
   0x00, 0x00, 0x00, 0x00, 0x00, 0x00, 0x00, 0x00, 0x00, 0x00, 0x00, 0x00,
   0x00, 0x00, 0x00, 0x00, 0x00, 0x00, 0x00, 0x00, 0x00, 0x00, 0x00, 0x00,
   0x00, 0x00, 0x00, 0x00, 0x00, 0x00, 0x00, 0x00, 0x00, 0x00, 0x00, 0x00 };
