#define jp_width 84
#define jp_height 48
static unsigned char jp_bits[] = {
   0x00, 0x00, 0x00, 0x00, 0x00, 0x00, 0x00, 0x00, 0x00, 0x00, 0x00, 0x00,
   0x00, 0x00, 0x00, 0x00, 0x00, 0x00, 0x00, 0x00, 0x00, 0x00, 0x00, 0x00,
   0x00, 0x00, 0x00, 0x00, 0x00, 0x00, 0x00, 0x00, 0x00, 0x00, 0x00, 0x00,
   0x40, 0x00, 0x10, 0x00, 0x00, 0x06, 0x00, 0x00, 0x00, 0xfe, 0x07, 0x40,
   0x00, 0x10, 0x00, 0x00, 0x06, 0x00, 0x00, 0x00, 0x00, 0x00, 0x20, 0x00,
   0x18, 0xfe, 0xe1, 0xff, 0x07, 0x00, 0x00, 0x00, 0x00, 0x20, 0x00, 0x18,
   0x00, 0x00, 0x02, 0x00, 0x00, 0x00, 0x00, 0x00, 0x30, 0x00, 0x18, 0x00,
   0x00, 0x03, 0x00, 0x00, 0x00, 0x00, 0x00, 0x10, 0x00, 0x08, 0x00, 0x00,
   0x01, 0x00, 0x00, 0x00, 0x00, 0x00, 0xd0, 0x00, 0x08, 0x00, 0x00, 0x01,
   0x00, 0x00, 0x00, 0x06, 0x00, 0x38, 0x01, 0x08, 0x00, 0x80, 0xfd, 0x00,
   0x00, 0x00, 0x02, 0x00, 0x18, 0x01, 0x08, 0x02, 0x80, 0x03, 0x01, 0x00,
   0x00, 0x03, 0x00, 0x0c, 0xc3, 0x08, 0x03, 0x00, 0x00, 0x03, 0x00, 0x00,
   0x01, 0x00, 0x0c, 0x42, 0x18, 0x01, 0x00, 0x00, 0x02, 0x00, 0x00, 0x01,
   0x00, 0x04, 0x42, 0x18, 0x01, 0x00, 0x00, 0x02, 0x00, 0x00, 0x03, 0x00,
   0x06, 0x22, 0x18, 0x03, 0x01, 0x00, 0x03, 0x00, 0x00, 0x06, 0x0c, 0x02,
   0x36, 0x10, 0xfc, 0x01, 0xc0, 0x01, 0x00, 0x00, 0xf8, 0x07, 0x02, 0x1c,
   0x10, 0x00, 0x00, 0x7f, 0x00, 0x00, 0x00, 0x00, 0x00, 0x00, 0x00, 0x00,
   0x00, 0x00, 0x00, 0x00, 0x00, 0x00, 0x00, 0x00, 0x00, 0x00, 0x00, 0x00,
   0x00, 0x00, 0x00, 0x00, 0x00, 0x00, 0x00, 0x00, 0x00, 0x00, 0x00, 0x00,
   0x00, 0x00, 0x00, 0x00, 0x00, 0x00, 0x00, 0x00, 0x00, 0x00, 0x00, 0x00,
   0x00, 0x00, 0x00, 0x00, 0x00, 0x00, 0x00, 0x00, 0x00, 0x00, 0x00, 0x00,
   0x00, 0x00, 0x00, 0x00, 0x00, 0x00, 0x00, 0x00, 0x00, 0x00, 0x00, 0x00,
   0x00, 0x00, 0x00, 0x00, 0x00, 0x00, 0x00, 0x00, 0x00, 0x00, 0x00, 0x00,
   0x00, 0x00, 0x00, 0x00, 0x00, 0x00, 0x00, 0x00, 0x00, 0x00, 0x00, 0x00,
   0x00, 0x00, 0x00, 0x00, 0x00, 0x00, 0x00, 0x00, 0x00, 0x00, 0x00, 0x00,
   0x40, 0x08, 0x00, 0x00, 0x00, 0x00, 0x00, 0x00, 0x00, 0x00, 0x02, 0x44,
   0x08, 0xf0, 0x7f, 0x00, 0x00, 0x00, 0x00, 0x80, 0x01, 0x02, 0x44, 0x08,
   0x10, 0x42, 0x00, 0x00, 0x00, 0x00, 0x80, 0x00, 0x02, 0x44, 0x08, 0x10,
   0x42, 0x00, 0x00, 0x00, 0x00, 0x80, 0xf0, 0x3f, 0x44, 0x08, 0xf0, 0x7f,
   0x00, 0x00, 0x00, 0x00, 0x80, 0x00, 0x82, 0xff, 0xff, 0x10, 0x42, 0x00,
   0x00, 0x00, 0x00, 0x80, 0x00, 0x02, 0x44, 0x08, 0x10, 0x42, 0x00, 0x00,
   0x00, 0x00, 0x80, 0x00, 0x02, 0x44, 0x08, 0xf0, 0x7f, 0x00, 0x00, 0x00,
   0x00, 0x80, 0x00, 0x02, 0x44, 0x08, 0x10, 0x43, 0x00, 0x00, 0x00, 0x00,
   0x80, 0x00, 0x02, 0x44, 0x08, 0x80, 0x0d, 0x00, 0x00, 0x00, 0x00, 0x80,
   0xf0, 0x03, 0x44, 0x08, 0xe0, 0x38, 0x00, 0x00, 0x00, 0x00, 0x80, 0x18,
   0x06, 0xc4, 0x0f, 0xbc, 0xe8, 0x01, 0x00, 0x00, 0x00, 0x80, 0x08, 0x0e,
   0x44, 0x08, 0x84, 0x08, 0x00, 0x00, 0x00, 0x00, 0x80, 0x08, 0x1a, 0x04,
   0x00, 0x80, 0x08, 0x00, 0x00, 0x00, 0x00, 0x80, 0x19, 0x13, 0x04, 0x00,
   0xc0, 0x08, 0x00, 0x00, 0x00, 0x00, 0x00, 0xe1, 0x01, 0xfc, 0xff, 0x60,
   0x08, 0x00, 0x00, 0x00, 0x00, 0x00, 0x00, 0x00, 0x00, 0x00, 0x30, 0x08,
   0x00, 0x00, 0x00, 0x00, 0x00, 0x00, 0x00, 0x00, 0x00, 0x00, 0x00, 0x00,
   0x00, 0x00, 0x00, 0x00, 0x00, 0x00, 0x00, 0x00, 0x00, 0x00, 0x00, 0x00,
   0x00, 0x00, 0x00, 0x00, 0x00, 0x00, 0x00, 0x00, 0x00, 0x00, 0x00, 0x00,
   0x00, 0x00, 0x00, 0x00, 0x00, 0x00, 0x00, 0x00, 0x00, 0x00, 0x00, 0x00 };
