#define ko_width 84
#define ko_height 48
static unsigned char ko_bits[] = {
   0x00, 0x00, 0x00, 0x00, 0x00, 0x00, 0x00, 0x00, 0x00, 0x00, 0x00, 0x00,
   0x00, 0x00, 0x00, 0x00, 0x00, 0x00, 0x00, 0x00, 0x00, 0x00, 0x00, 0x00,
   0x00, 0x00, 0x00, 0x00, 0x00, 0x00, 0x00, 0x00, 0x00, 0x00, 0x00, 0x00,
   0x00, 0x00, 0x00, 0x00, 0x00, 0x00, 0x00, 0x00, 0x00, 0x00, 0x00, 0x00,
   0x00, 0x00, 0x00, 0x00, 0x00, 0x00, 0x00, 0x00, 0x00, 0x00, 0x00, 0x00,
   0x00, 0x00, 0x00, 0x00, 0x00, 0x00, 0x00, 0xc0, 0x03, 0x41, 0x00, 0x04,
   0x00, 0x10, 0x00, 0x48, 0x00, 0x00, 0x60, 0x04, 0x41, 0x00, 0x04, 0x7e,
   0x10, 0x10, 0x48, 0x00, 0x00, 0x30, 0x08, 0x41, 0xe0, 0x07, 0x00, 0x10,
   0x10, 0x48, 0x00, 0x00, 0x10, 0x08, 0x41, 0x00, 0x84, 0xff, 0x13, 0x10,
   0x48, 0x00, 0x00, 0x10, 0x08, 0x41, 0x00, 0x04, 0x00, 0x10, 0x10, 0x48,
   0x00, 0x00, 0x30, 0x08, 0x41, 0xe0, 0x07, 0x38, 0x10, 0x30, 0x48, 0x00,
   0x00, 0x20, 0x04, 0x4f, 0x00, 0x04, 0x44, 0x10, 0x38, 0x4f, 0x00, 0x00,
   0xc0, 0x03, 0xc1, 0x7f, 0x04, 0x82, 0xf0, 0x38, 0x48, 0x00, 0x00, 0x00,
   0x00, 0x01, 0x00, 0x04, 0x82, 0x10, 0x6c, 0x48, 0x00, 0x00, 0x00, 0x00,
   0x01, 0x00, 0x04, 0x82, 0x10, 0x44, 0x48, 0x00, 0x00, 0x40, 0x00, 0x01,
   0xfe, 0x03, 0xc6, 0x10, 0xc6, 0x48, 0x00, 0x00, 0x40, 0x00, 0x01, 0x03,
   0x06, 0x7c, 0x10, 0x83, 0x49, 0x00, 0x00, 0x40, 0x00, 0x00, 0x01, 0x04,
   0x00, 0x10, 0x00, 0x48, 0x00, 0x00, 0x40, 0x00, 0x00, 0x03, 0x06, 0x00,
   0x10, 0x00, 0x48, 0x00, 0x00, 0xc0, 0xff, 0x03, 0xfe, 0x03, 0x00, 0x10,
   0x00, 0x40, 0x00, 0x00, 0x00, 0x00, 0x00, 0x00, 0x00, 0x00, 0x00, 0x00,
   0x40, 0x00, 0x00, 0x00, 0x00, 0x00, 0x00, 0x00, 0x00, 0x00, 0x00, 0x00,
   0x00, 0x00, 0x00, 0x00, 0x00, 0x00, 0x00, 0x00, 0x00, 0x00, 0x00, 0x00,
   0x00, 0x00, 0x00, 0x00, 0x00, 0x00, 0x00, 0x00, 0x00, 0x00, 0x00, 0x00,
   0x00, 0x00, 0x00, 0x00, 0x00, 0x00, 0x00, 0x00, 0x00, 0x00, 0x00, 0x00,
   0x00, 0x00, 0x00, 0x00, 0x00, 0x00, 0x00, 0x00, 0x00, 0x00, 0x00, 0x00,
   0x00, 0x00, 0x00, 0x00, 0x00, 0x00, 0x00, 0x00, 0x00, 0x00, 0x00, 0x00,
   0x00, 0x00, 0x00, 0x00, 0x00, 0x00, 0x00, 0x00, 0x00, 0x00, 0x00, 0x00,
   0x90, 0x00, 0x40, 0x02, 0x00, 0x00, 0x00, 0x80, 0x7f, 0x00, 0x20, 0x90,
   0x00, 0x40, 0x02, 0x00, 0x00, 0x00, 0xc0, 0xc0, 0x00, 0x20, 0x90, 0xf0,
   0x47, 0x02, 0x00, 0x00, 0x00, 0x20, 0x00, 0x01, 0x20, 0x90, 0x00, 0x44,
   0x02, 0x00, 0x00, 0x00, 0x20, 0x00, 0x01, 0x20, 0x90, 0x00, 0x7e, 0x02,
   0x00, 0x00, 0x00, 0x20, 0x80, 0x01, 0x60, 0x90, 0x00, 0x42, 0x02, 0x00,
   0x00, 0x00, 0xc0, 0xc0, 0x00, 0x70, 0x9e, 0x00, 0x42, 0x02, 0x00, 0x00,
   0x00, 0x80, 0x7f, 0x00, 0x70, 0x90, 0x00, 0x43, 0x02, 0x00, 0x00, 0x00,
   0x00, 0x00, 0x00, 0xd8, 0x90, 0x80, 0x41, 0x02, 0x00, 0x00, 0x00, 0x80,
   0x60, 0x00, 0x88, 0x90, 0x80, 0x7c, 0x02, 0x00, 0x00, 0x00, 0x80, 0x60,
   0x00, 0x8c, 0x91, 0x60, 0x40, 0x02, 0x00, 0x00, 0x00, 0x80, 0x60, 0x00,
   0x06, 0x93, 0x30, 0x40, 0x02, 0x00, 0x00, 0x00, 0x80, 0x60, 0x00, 0x00,
   0x90, 0x00, 0x40, 0x02, 0x00, 0x00, 0x00, 0xf8, 0xff, 0x03, 0x00, 0x90,
   0x00, 0x40, 0x02, 0x00, 0x00, 0x00, 0x00, 0x00, 0x00, 0x00, 0x80, 0x00,
   0x00, 0x02, 0x00, 0x00, 0x00, 0x00, 0x00, 0x00, 0x00, 0x80, 0x00, 0x00,
   0x02, 0x00, 0x00, 0x00, 0x00, 0x00, 0x00, 0x00, 0x00, 0x00, 0x00, 0x00,
   0x00, 0x00, 0x00, 0x00, 0x00, 0x00, 0x00, 0x00, 0x00, 0x00, 0x00, 0x00,
   0x00, 0x00, 0x00, 0x00, 0x00, 0x00, 0x00, 0x00, 0x00, 0x00, 0x00, 0x00 };
