#define mx_width 84
#define mx_height 48
static unsigned char mx_bits[] = {
   0x00, 0x00, 0x00, 0x00, 0x00, 0x00, 0x00, 0x00, 0x00, 0x00, 0x00, 0x00,
   0x00, 0x00, 0x00, 0x00, 0x00, 0x00, 0x00, 0x00, 0x00, 0x00, 0x80, 0x01,
   0x06, 0x00, 0x30, 0x00, 0x00, 0x00, 0x00, 0x00, 0x00, 0x80, 0x01, 0x06,
   0x00, 0x30, 0x00, 0x00, 0x00, 0x00, 0x00, 0x00, 0x80, 0x01, 0x06, 0x00,
   0x30, 0x00, 0x00, 0x00, 0x00, 0x00, 0x00, 0x80, 0x01, 0x06, 0x00, 0x30,
   0x00, 0x00, 0x00, 0x00, 0x00, 0x00, 0x80, 0x01, 0x06, 0x3e, 0x30, 0xf8,
   0x00, 0x00, 0x00, 0x00, 0x00, 0x80, 0x01, 0x06, 0x7f, 0x30, 0xfc, 0x03,
   0x00, 0x00, 0x00, 0x00, 0x80, 0x01, 0x86, 0xc1, 0x30, 0x00, 0x03, 0x00,
   0x00, 0x00, 0x00, 0x80, 0xff, 0xc7, 0xc1, 0x31, 0x00, 0x06, 0x00, 0x00,
   0x00, 0x00, 0x80, 0xff, 0xc7, 0x80, 0x31, 0xe0, 0x07, 0x00, 0x00, 0x00,
   0x00, 0x80, 0x01, 0xc6, 0x80, 0x31, 0xfc, 0x07, 0x00, 0x00, 0x00, 0x00,
   0x80, 0x01, 0xc6, 0x80, 0x31, 0x0e, 0x06, 0x00, 0x00, 0x00, 0x00, 0x80,
   0x01, 0xc6, 0x80, 0x31, 0x06, 0x06, 0x00, 0x00, 0x00, 0x00, 0x80, 0x01,
   0xc6, 0xc1, 0x31, 0x06, 0x06, 0x00, 0x00, 0x00, 0x00, 0x80, 0x01, 0x86,
   0xc1, 0x30, 0x06, 0x07, 0x00, 0x00, 0x00, 0x00, 0x80, 0x01, 0x06, 0x7f,
   0x30, 0xfc, 0x07, 0x00, 0x00, 0x00, 0x00, 0x80, 0x01, 0x06, 0x3e, 0x30,
   0x78, 0x06, 0x00, 0x00, 0x00, 0x00, 0x00, 0x00, 0x00, 0x00, 0x00, 0x00,
   0x00, 0x00, 0x00, 0x00, 0x00, 0x00, 0x00, 0x00, 0x00, 0x00, 0x00, 0x00,
   0x00, 0x00, 0x00, 0x00, 0x00, 0x00, 0x00, 0x00, 0x00, 0x00, 0x00, 0x00,
   0x00, 0x00, 0x00, 0x00, 0x00, 0x00, 0x00, 0x00, 0x00, 0x00, 0x00, 0x00,
   0x00, 0x00, 0x00, 0x00, 0x00, 0x00, 0x00, 0x00, 0x00, 0x00, 0x00, 0x00,
   0x00, 0x00, 0x00, 0x00, 0x00, 0x00, 0x00, 0x00, 0x00, 0x00, 0x00, 0x00,
   0x00, 0x00, 0x00, 0x00, 0x00, 0x00, 0x00, 0x00, 0x00, 0x00, 0x00, 0x00,
   0x00, 0x00, 0x00, 0x00, 0x00, 0x00, 0x00, 0x00, 0x00, 0x00, 0x00, 0x00,
   0x00, 0x00, 0x00, 0x00, 0x00, 0x00, 0x00, 0x00, 0x00, 0x80, 0x03, 0x1c,
   0x00, 0x00, 0x00, 0x00, 0x30, 0x00, 0x00, 0x00, 0x80, 0x07, 0x1e, 0x00,
   0x00, 0x00, 0x00, 0x30, 0x00, 0x00, 0x00, 0x80, 0x07, 0x1e, 0x00, 0x00,
   0x00, 0x00, 0x30, 0x00, 0x00, 0x00, 0x80, 0x05, 0x1a, 0x00, 0x00, 0x00,
   0x00, 0x30, 0x00, 0x00, 0x00, 0x80, 0x0d, 0x1b, 0x06, 0x86, 0x79, 0x80,
   0x37, 0xf0, 0x01, 0x00, 0x80, 0x0d, 0x1b, 0x06, 0x86, 0xff, 0xe0, 0x3f,
   0xf8, 0x03, 0x00, 0x80, 0x09, 0x19, 0x06, 0x86, 0xc3, 0x61, 0x38, 0x0c,
   0x06, 0x00, 0x80, 0x99, 0x19, 0x06, 0x86, 0x81, 0x31, 0x30, 0x0e, 0x0e,
   0x00, 0x80, 0x99, 0x19, 0x06, 0x86, 0x81, 0x31, 0x30, 0x06, 0x0c, 0x00,
   0x80, 0xd1, 0x18, 0x06, 0x86, 0x81, 0x31, 0x30, 0x06, 0x0c, 0x00, 0x80,
   0xf1, 0x18, 0x06, 0x86, 0x81, 0x31, 0x30, 0x06, 0x0c, 0x00, 0x80, 0xf1,
   0x18, 0x06, 0x86, 0x81, 0x31, 0x30, 0x06, 0x0c, 0x00, 0x80, 0x61, 0x18,
   0x06, 0x86, 0x81, 0x31, 0x30, 0x0e, 0x0e, 0x00, 0x80, 0x01, 0x18, 0x0e,
   0x87, 0x81, 0x61, 0x38, 0x0c, 0x06, 0x00, 0x80, 0x01, 0x18, 0xfc, 0x87,
   0x81, 0xe1, 0x3f, 0xf8, 0x03, 0x00, 0x80, 0x01, 0x18, 0x78, 0x86, 0x81,
   0x81, 0x37, 0xf0, 0x01, 0x00, 0x00, 0x00, 0x00, 0x00, 0x00, 0x00, 0x00,
   0x00, 0x00, 0x00, 0x00, 0x00, 0x00, 0x00, 0x00, 0x00, 0x00, 0x00, 0x00,
   0x00, 0x00, 0x00, 0x00, 0x00, 0x00, 0x00, 0x00, 0x00, 0x00, 0x00, 0x00,
   0x00, 0x00, 0x00, 0x00, 0x00, 0x00, 0x00, 0x00, 0x00, 0x00, 0x00, 0x00,
   0x00, 0x00, 0x00, 0x00, 0x00, 0x00, 0x00, 0x00, 0x00, 0x00, 0x00, 0x00 };
