#define ru_width 84
#define ru_height 48
static unsigned char ru_bits[] = {
   0x00, 0x00, 0x00, 0x00, 0x00, 0x00, 0x00, 0x00, 0x00, 0x00, 0x00, 0x00,
   0x00, 0x00, 0x00, 0x00, 0x00, 0x00, 0x00, 0x00, 0x00, 0x00, 0x00, 0x00,
   0x00, 0x00, 0x00, 0x00, 0x00, 0x00, 0x00, 0x00, 0x00, 0x00, 0x00, 0x00,
   0x00, 0x00, 0x00, 0x00, 0x00, 0x00, 0x00, 0x00, 0x00, 0x00, 0x00, 0x00,
   0x00, 0x00, 0x00, 0x00, 0x00, 0x00, 0x00, 0x00, 0x00, 0x00, 0x00, 0x00,
   0x00, 0x00, 0x00, 0x00, 0x00, 0x00, 0x00, 0x00, 0x00, 0x00, 0x00, 0x00,
   0x00, 0x00, 0x00, 0x00, 0x00, 0xf8, 0x1f, 0x00, 0x00, 0x00, 0x00, 0x00,
   0x00, 0x00, 0x00, 0x00, 0x18, 0x18, 0x00, 0x00, 0x00, 0x00, 0x00, 0x00,
   0x00, 0x00, 0x00, 0x18, 0x18, 0x00, 0x00, 0x00, 0x00, 0x00, 0x00, 0x00,
   0x00, 0x00, 0x18, 0x18, 0xf6, 0x60, 0x38, 0x7e, 0xc0, 0xc3, 0x7f, 0x00,
   0x00, 0x18, 0x18, 0xde, 0x61, 0x38, 0xc6, 0x70, 0x06, 0x0c, 0x00, 0x00,
   0x18, 0x18, 0x86, 0x61, 0x3c, 0x86, 0x11, 0x0c, 0x0c, 0x00, 0x00, 0x18,
   0x18, 0x06, 0x63, 0x36, 0xc6, 0x18, 0x0c, 0x0c, 0x00, 0x00, 0x18, 0x18,
   0x06, 0x63, 0x32, 0x7e, 0xf8, 0x0f, 0x0c, 0x00, 0x00, 0x18, 0x18, 0x06,
   0x63, 0x33, 0xc6, 0x18, 0x00, 0x0c, 0x00, 0x00, 0x18, 0x18, 0x06, 0x63,
   0x31, 0x86, 0x19, 0x00, 0x0c, 0x00, 0x00, 0x18, 0x18, 0x86, 0xe1, 0x31,
   0x86, 0x11, 0x00, 0x0c, 0x00, 0x00, 0x18, 0x18, 0xde, 0xe1, 0x30, 0xc6,
   0x71, 0x0e, 0x0c, 0x0c, 0x00, 0x18, 0x18, 0xf6, 0x60, 0x30, 0xfe, 0xc0,
   0x07, 0x0c, 0x0c, 0x00, 0x00, 0x00, 0x06, 0x00, 0x00, 0x00, 0x00, 0x00,
   0x00, 0x04, 0x00, 0x00, 0x00, 0x06, 0x00, 0x00, 0x00, 0x00, 0x00, 0x00,
   0x06, 0x00, 0x00, 0x00, 0x06, 0x00, 0x00, 0x00, 0x00, 0x00, 0x00, 0x00,
   0x00, 0x00, 0x00, 0x06, 0x00, 0x00, 0x00, 0x00, 0x00, 0x00, 0x00, 0x00,
   0x00, 0x00, 0x00, 0x00, 0x00, 0x00, 0x00, 0x00, 0x00, 0x00, 0x00, 0x00,
   0x00, 0x00, 0x00, 0x00, 0x00, 0x00, 0x00, 0x00, 0x00, 0x00, 0x00, 0x00,
   0x00, 0x00, 0x00, 0x00, 0x00, 0x00, 0x00, 0x00, 0x00, 0x00, 0x00, 0x00,
   0x00, 0x00, 0x00, 0x00, 0x00, 0x00, 0x00, 0x00, 0x00, 0x00, 0x00, 0x00,
   0x00, 0x00, 0x00, 0x00, 0x00, 0x00, 0x00, 0x00, 0x00, 0x00, 0x00, 0x00,
   0x00, 0x00, 0x00, 0x00, 0x00, 0x00, 0x00, 0x00, 0x00, 0x00, 0x00, 0x00,
   0x00, 0x00, 0x00, 0x00, 0x00, 0x00, 0x00, 0x00, 0x00, 0x00, 0x00, 0x00,
   0x00, 0x00, 0x00, 0x00, 0x38, 0x1c, 0x86, 0x63, 0x0f, 0x00, 0x00, 0x00,
   0x00, 0x00, 0x00, 0x38, 0x1c, 0x86, 0xe3, 0x1d, 0x00, 0x00, 0x00, 0x00,
   0x00, 0x00, 0x38, 0x1c, 0xc6, 0x63, 0x18, 0x00, 0x00, 0x00, 0x00, 0x00,
   0x00, 0x78, 0x1e, 0x66, 0x63, 0x30, 0x00, 0x00, 0x00, 0x00, 0x00, 0x00,
   0x58, 0x1a, 0x26, 0x63, 0x30, 0x00, 0x00, 0x00, 0x00, 0x00, 0x00, 0xd8,
   0x1b, 0x36, 0x63, 0x30, 0x00, 0x00, 0x00, 0x00, 0x00, 0x00, 0x98, 0x19,
   0x16, 0x63, 0x30, 0x00, 0x00, 0x00, 0x00, 0x00, 0x00, 0x98, 0x19, 0x1e,
   0x63, 0x18, 0x00, 0x00, 0x00, 0x00, 0x00, 0x00, 0x18, 0x18, 0x0e, 0xe3,
   0x1d, 0x00, 0x00, 0x00, 0x00, 0x00, 0x00, 0x18, 0x18, 0x06, 0x63, 0x0f,
   0x00, 0x00, 0x00, 0x00, 0x00, 0x00, 0x00, 0x00, 0x00, 0x60, 0x00, 0x00,
   0x00, 0x00, 0x00, 0x00, 0x00, 0x00, 0x00, 0x00, 0x60, 0x00, 0x00, 0x00,
   0x00, 0x00, 0x00, 0x00, 0x00, 0x00, 0x00, 0x60, 0x00, 0x00, 0x00, 0x00,
   0x00, 0x00, 0x00, 0x00, 0x00, 0x00, 0x60, 0x00, 0x00, 0x00, 0x00, 0x00,
   0x00, 0x00, 0x00, 0x00, 0x00, 0x00, 0x00, 0x00, 0x00, 0x00, 0x00, 0x00,
   0x00, 0x00, 0x00, 0x00, 0x00, 0x00, 0x00, 0x00, 0x00, 0x00, 0x00, 0x00 };
