#define us_width 84
#define us_height 48
static unsigned char us_bits[] = {
   0x00, 0x00, 0x00, 0x00, 0x00, 0x00, 0x00, 0x00, 0x00, 0x00, 0x00, 0x00,
   0x00, 0x00, 0x00, 0x00, 0x00, 0x00, 0x00, 0x00, 0x00, 0x00, 0x00, 0x00,
   0x00, 0x00, 0x00, 0x00, 0x00, 0x00, 0x00, 0x00, 0x00, 0x00, 0x00, 0x00,
   0x00, 0x00, 0x00, 0x00, 0x00, 0x00, 0x00, 0x00, 0x00, 0x80, 0x01, 0x06,
   0x00, 0x30, 0x0c, 0x00, 0x00, 0x00, 0x00, 0x00, 0x80, 0x01, 0x06, 0x00,
   0x30, 0x0c, 0x00, 0x00, 0x00, 0x00, 0x00, 0x80, 0x01, 0x06, 0x00, 0x30,
   0x0c, 0x00, 0x00, 0x00, 0x00, 0x00, 0x80, 0x01, 0x06, 0x00, 0x30, 0x0c,
   0x00, 0x00, 0x00, 0x00, 0x00, 0x80, 0x01, 0x06, 0x3e, 0x30, 0x0c, 0x7c,
   0x00, 0x00, 0x00, 0x00, 0x80, 0x01, 0x06, 0xff, 0x30, 0x0c, 0xfe, 0x00,
   0x00, 0x00, 0x00, 0x80, 0x01, 0x86, 0xc1, 0x30, 0x0c, 0x83, 0x01, 0x00,
   0x00, 0x00, 0x80, 0xff, 0xc7, 0x80, 0x31, 0x8c, 0x83, 0x03, 0x00, 0x00,
   0x00, 0x80, 0xff, 0xc7, 0x80, 0x31, 0x8c, 0x01, 0x03, 0x00, 0x00, 0x00,
   0x80, 0x01, 0xc6, 0xff, 0x31, 0x8c, 0x01, 0x03, 0x00, 0x00, 0x00, 0x80,
   0x01, 0xc6, 0xff, 0x31, 0x8c, 0x01, 0x03, 0x00, 0x00, 0x00, 0x80, 0x01,
   0xc6, 0x00, 0x30, 0x8c, 0x01, 0x03, 0x00, 0x00, 0x00, 0x80, 0x01, 0xc6,
   0x00, 0x30, 0x8c, 0x83, 0x03, 0x00, 0x00, 0x00, 0x80, 0x01, 0x86, 0x01,
   0x30, 0x0c, 0x83, 0x01, 0x00, 0x00, 0x00, 0x80, 0x01, 0x06, 0xff, 0x31,
   0x0c, 0xfe, 0x00, 0x00, 0x00, 0x00, 0x80, 0x01, 0x06, 0x7e, 0x30, 0x0c,
   0x7c, 0x00, 0x00, 0x00, 0x00, 0x00, 0x00, 0x00, 0x00, 0x00, 0x00, 0x00,
   0x00, 0x00, 0x00, 0x00, 0x00, 0x00, 0x00, 0x00, 0x00, 0x00, 0x00, 0x00,
   0x00, 0x00, 0x00, 0x00, 0x00, 0x00, 0x00, 0x00, 0x00, 0x00, 0x00, 0x00,
   0x00, 0x00, 0x00, 0x00, 0x00, 0x00, 0x00, 0x00, 0x00, 0x00, 0x00, 0x00,
   0x00, 0x00, 0x00, 0x00, 0x00, 0x00, 0x00, 0x00, 0x00, 0x00, 0x00, 0x00,
   0x00, 0x00, 0x00, 0x00, 0x00, 0x00, 0x00, 0x00, 0x00, 0x00, 0x00, 0x00,
   0x00, 0x00, 0x00, 0x00, 0x00, 0x00, 0x00, 0x00, 0x00, 0x00, 0x00, 0x00,
   0x00, 0x00, 0x00, 0x00, 0x00, 0x00, 0x00, 0x00, 0x00, 0x00, 0x00, 0x00,
   0x00, 0x00, 0x00, 0x00, 0x00, 0x00, 0x00, 0x00, 0xc0, 0xc0, 0x81, 0x01,
   0x00, 0x00, 0x06, 0xc0, 0x00, 0x00, 0x00, 0xc0, 0xc0, 0x81, 0x01, 0x00,
   0x00, 0x06, 0xc0, 0x00, 0x00, 0x00, 0xc0, 0xc0, 0xc1, 0x00, 0x00, 0x00,
   0x06, 0xc0, 0x00, 0x00, 0x00, 0x80, 0x61, 0xc1, 0x00, 0x00, 0x00, 0x06,
   0xc0, 0x00, 0x00, 0x00, 0x80, 0x61, 0xc3, 0xe0, 0x03, 0x7b, 0x06, 0xde,
   0x00, 0x00, 0x00, 0x80, 0x61, 0xc3, 0xf0, 0x07, 0x3f, 0x86, 0xff, 0x00,
   0x00, 0x00, 0x80, 0x21, 0xe3, 0x18, 0x0c, 0x07, 0x86, 0xe1, 0x00, 0x00,
   0x00, 0x80, 0x33, 0x62, 0x1c, 0x1c, 0x03, 0xc6, 0xc0, 0x00, 0x00, 0x00,
   0x00, 0x33, 0x66, 0x0c, 0x18, 0x03, 0xc6, 0xc0, 0x00, 0x00, 0x00, 0x00,
   0x33, 0x66, 0x0c, 0x18, 0x03, 0xc6, 0xc0, 0x00, 0x00, 0x00, 0x00, 0x13,
   0x76, 0x0c, 0x18, 0x03, 0xc6, 0xc0, 0x00, 0x00, 0x00, 0x00, 0x1f, 0x34,
   0x0c, 0x18, 0x03, 0xc6, 0xc0, 0x00, 0x00, 0x00, 0x00, 0x1e, 0x3c, 0x1c,
   0x1c, 0x03, 0xc6, 0xc0, 0x00, 0x00, 0x00, 0x00, 0x1e, 0x3c, 0x18, 0x0c,
   0x03, 0x86, 0xe1, 0x00, 0x00, 0x00, 0x00, 0x0e, 0x3c, 0xf0, 0x07, 0x03,
   0x86, 0xff, 0x00, 0x00, 0x00, 0x00, 0x0e, 0x18, 0xe0, 0x03, 0x03, 0x06,
   0xde, 0x00, 0x00, 0x00, 0x00, 0x00, 0x00, 0x00, 0x00, 0x00, 0x00, 0x00,
   0x00, 0x00, 0x00, 0x00, 0x00, 0x00, 0x00, 0x00, 0x00, 0x00, 0x00, 0x00,
   0x00, 0x00, 0x00, 0x00, 0x00, 0x00, 0x00, 0x00, 0x00, 0x00, 0x00, 0x00 };
