<?xml version="1.0" encoding="UTF-8" standalone="no"?>
<!-- Created with Inkscape (http://www.inkscape.org/) -->

<svg
   xmlns:dc="http://purl.org/dc/elements/1.1/"
   xmlns:cc="http://creativecommons.org/ns#"
   xmlns:rdf="http://www.w3.org/1999/02/22-rdf-syntax-ns#"
   xmlns:svg="http://www.w3.org/2000/svg"
   xmlns="http://www.w3.org/2000/svg"
   xmlns:sodipodi="http://sodipodi.sourceforge.net/DTD/sodipodi-0.dtd"
   xmlns:inkscape="http://www.inkscape.org/namespaces/inkscape"
   width="8.3164597mm"
   height="2.7302599mm"
   viewBox="0 0 8.3164597 2.7302599"
   version="1.1"
   id="svg8"
   inkscape:version="0.92.3 (2405546, 2018-03-11)"
   sodipodi:docname="walk.svg">
  <defs
     id="defs2" />
  <sodipodi:namedview
     id="base"
     pagecolor="#ffffff"
     bordercolor="#666666"
     borderopacity="1.0"
     inkscape:pageopacity="0.0"
     inkscape:pageshadow="2"
     inkscape:zoom="24.528916"
     inkscape:cx="15.152323"
     inkscape:cy="5.1595461"
     inkscape:document-units="mm"
     inkscape:current-layer="layer1"
     showgrid="false"
     inkscape:window-width="966"
     inkscape:window-height="704"
     inkscape:window-x="61"
     inkscape:window-y="32"
     inkscape:window-maximized="0"
     fit-margin-top="0"
     fit-margin-left="0"
     fit-margin-right="0"
     fit-margin-bottom="0" />
  <metadata
     id="metadata5">
    <rdf:RDF>
      <cc:Work
         rdf:about="">
        <dc:format>image/svg+xml</dc:format>
        <dc:type
           rdf:resource="http://purl.org/dc/dcmitype/StillImage" />
        <dc:title></dc:title>
      </cc:Work>
    </rdf:RDF>
  </metadata>
  <g
     inkscape:label="Layer 1"
     inkscape:groupmode="layer"
     id="layer1"
     transform="translate(-28.843322,-126.49829)">
    <path
       inkscape:connector-curvature="0"
       id="W"
       style="font-style:normal;font-variant:normal;font-weight:normal;font-stretch:normal;font-size:medium;line-height:100%;font-family:sans-serif;-inkscape-font-specification:'sans-serif, Normal';font-variant-ligatures:normal;font-variant-caps:normal;font-variant-numeric:normal;text-align:start;letter-spacing:0px;word-spacing:0px;writing-mode:lr-tb;text-anchor:start;fill:#000000;fill-opacity:1;stroke:none;stroke-width:0.26458332px;stroke-linecap:butt;stroke-linejoin:miter;stroke-opacity:1"
       d="m 28.843322,126.60681 h 0.3514 l 0.54088,2.17386 0.539157,-2.17386 h 0.391018 l 0.54088,2.17386 0.539158,-2.17386 h 0.353122 l -0.645955,2.57176 h -0.437527 l -0.542603,-2.23242 -0.54777,2.23242 h -0.437527 z" />
    <path
       inkscape:connector-curvature="0"
       id="a"
       style="font-style:normal;font-variant:normal;font-weight:normal;font-stretch:normal;font-size:medium;line-height:100%;font-family:sans-serif;-inkscape-font-specification:'sans-serif, Normal';font-variant-ligatures:normal;font-variant-caps:normal;font-variant-numeric:normal;text-align:start;letter-spacing:0px;word-spacing:0px;writing-mode:lr-tb;text-anchor:start;fill:#000000;fill-opacity:1;stroke:none;stroke-width:0.26458332px;stroke-linecap:butt;stroke-linejoin:miter;stroke-opacity:1"
       d="m 33.194477,128.20878 q -0.384128,0 -0.532267,0.0879 -0.148139,0.0879 -0.148139,0.29972 0,0.16881 0.110243,0.26872 0.111966,0.0982 0.303168,0.0982 0.26355,0 0.422025,-0.18604 0.160197,-0.18776 0.160197,-0.49782 v -0.0706 z m 0.632175,-0.13091 v 1.1007 h -0.316948 v -0.29283 q -0.108521,0.1757 -0.27044,0.26011 -0.16192,0.0827 -0.396186,0.0827 -0.296279,0 -0.471979,-0.16537 -0.173977,-0.16708 -0.173977,-0.44614 0,-0.32556 0.217041,-0.49092 0.218764,-0.16537 0.651123,-0.16537 h 0.444418 v -0.031 q 0,-0.21877 -0.144694,-0.33762 -0.142972,-0.12058 -0.403077,-0.12058 -0.165364,0 -0.322116,0.0396 -0.156752,0.0396 -0.301446,0.11885 v -0.29283 q 0.173977,-0.0672 0.337619,-0.0999 0.163642,-0.0345 0.318672,-0.0345 0.418579,0 0.625285,0.21704 0.206705,0.21704 0.206705,0.65802 z" />
    <path
       inkscape:connector-curvature="0"
       id="l"
       style="font-style:normal;font-variant:normal;font-weight:normal;font-stretch:normal;font-size:medium;line-height:100%;font-family:sans-serif;-inkscape-font-specification:'sans-serif, Normal';font-variant-ligatures:normal;font-variant-caps:normal;font-variant-numeric:normal;text-align:start;letter-spacing:0px;word-spacing:0px;writing-mode:lr-tb;text-anchor:start;fill:#000000;fill-opacity:1;stroke:none;stroke-width:0.26458332px;stroke-linecap:butt;stroke-linejoin:miter;stroke-opacity:1"
       d="m 34.48122,126.49829 h 0.316949 v 2.68028 H 34.48122 Z" />
    <path
       inkscape:connector-curvature="0"
       id="k"
       style="font-style:normal;font-variant:normal;font-weight:normal;font-stretch:normal;font-size:medium;line-height:100%;font-family:sans-serif;-inkscape-font-specification:'sans-serif, Normal';font-variant-ligatures:normal;font-variant-caps:normal;font-variant-numeric:normal;text-align:start;letter-spacing:0px;word-spacing:0px;writing-mode:lr-tb;text-anchor:start;fill:#000000;fill-opacity:1;stroke:none;stroke-width:0.26458332px;stroke-linecap:butt;stroke-linejoin:miter;stroke-opacity:1"
       d="m 35.44757,126.49829 h 0.318671 v 1.58302 l 0.945679,-0.83199 h 0.404798 l -1.023193,0.90262 1.066257,1.02663 h -0.413411 l -0.98013,-0.94223 v 0.94223 H 35.44757 Z" />
  </g>
</svg>
