#define hand_width 8
#define hand_height 8
static unsigned char hand_bits[] = {
   0x06, 0x0f, 0x0f, 0x1f, 0x1f, 0x0f, 0x06, 0x06 };
